<?xml version="1.0" encoding="UTF-8"?>
<svg xmlns="http://www.w3.org/2000/svg" xmlns:xlink="http://www.w3.org/1999/xlink" viewBox="0 0 24 24" version="1.1" width="512px" height="512px">
<g id="surface1">
<path style=" " d="M 4 2 C 2.898438 2 2 2.898438 2 4 L 2 20 C 2 21.101563 2.898438 22 4 22 L 20 22 C 21.101563 22 22 21.101563 22 20 L 22 4 C 22 2.898438 21.101563 2 20 2 Z M 4 4 L 20 4 L 20 8 L 16.453125 8 C 15.355469 6.777344 13.765625 6 12 6 C 10.234375 6 8.644531 6.777344 7.546875 8 L 4 8 Z M 17 5 L 17 7 L 19 7 L 19 5 Z M 12 8 C 14.222656 8 16 9.777344 16 12 C 16 14.222656 14.222656 16 12 16 C 9.777344 16 8 14.222656 8 12 C 8 9.777344 9.777344 8 12 8 Z M 12 10 C 11.800781 10 11.601563 10 11.402344 10.097656 C 11.699219 10.300781 12 10.601563 12 11 C 12 11.601563 11.601563 12 11 12 C 10.601563 12 10.300781 11.800781 10.097656 11.402344 C 10 11.601563 10 11.800781 10 12 C 10 13.101563 10.898438 14 12 14 C 13.101563 14 14 13.101563 14 12 C 14 10.898438 13.101563 10 12 10 Z "/>
</g>
</svg>
