<?xml version="1.0" encoding="iso-8859-1"?>
<!-- Generator: Adobe Illustrator 19.0.0, SVG Export Plug-In . SVG Version: 6.00 Build 0)  -->
<svg xmlns="http://www.w3.org/2000/svg" xmlns:xlink="http://www.w3.org/1999/xlink" version="1.1" id="Layer_1" x="0px" y="0px" viewBox="0 0 512.004 512.004" style="enable-background:new 0 0 512.004 512.004;" xml:space="preserve" width="512px" height="512px">
<g>
	<g>
		<circle cx="79.017" cy="95.123" r="32.359" fill="#FFFFFF"/>
	</g>
</g>
<g>
	<g>
		<path d="M221.932,226.399l-60.905-21.062l-24.013-47.32c-6.33-12.473-18.95-20.222-32.938-20.222c-7.741,0-59.265,0-66.839,0    c-20.272,0-37.136,16.491-37.237,36.763v114.705c-0.044,8.623,6.624,15.649,15.247,15.691c0.027,0,0.052,0,0.079,0    c8.586,0,15.857-6.939,15.9-15.535V174.715c0.009-1.802,1.763-3.256,3.565-3.251c1.801,0.006,3.258,1.467,3.257,3.27    c-0.026,47.414-0.338,150.956-0.338,262.448c0,10.348,8.388,18.736,18.736,18.736s18.737-8.388,18.737-18.736v-149.76h8.09V437.18    c0,10.348,8.388,18.736,18.737,18.736s18.736-8.388,18.736-18.736V287.421h0.008c0-17.781,0-74.925,0-92.445l15.285,30.12    c1.832,3.61,4.994,6.367,8.821,7.691l66.87,23.124c8.148,2.819,17.038-1.508,19.855-9.654    C234.405,238.108,230.082,229.218,221.932,226.399z" fill="#FFFFFF"/>
	</g>
</g>
<g>
	<g>
		<path d="M235.691,56.086c-6.058,0-10.971,4.912-10.971,10.971v44.039c0.001,6.057,4.913,10.97,10.971,10.97    c6.058,0,10.97-4.912,10.97-10.971V67.056C246.661,60.998,241.749,56.086,235.691,56.086z" fill="#FFFFFF"/>
	</g>
</g>
<g>
	<g>
		<path d="M209.137,99.215l-31.14-31.14c-4.285-4.283-11.23-4.283-15.515,0c-4.284,4.284-4.284,11.23,0,15.515l31.14,31.14    c4.287,4.284,11.229,4.283,15.515,0C213.421,110.446,213.421,103.499,209.137,99.215z" fill="#FFFFFF"/>
	</g>
</g>
<g>
	<g>
		<path d="M202.46,130.472h-44.039c-6.058,0-10.97,4.912-10.97,10.971c0,6.058,4.912,10.971,10.97,10.971h44.039    c6.058,0,10.97-4.912,10.97-10.971C213.43,135.385,208.517,130.472,202.46,130.472z" fill="#FFFFFF"/>
	</g>
</g>
<g>
	<g>
		<path d="M491.462,267l-21.89-117.361c-1.161-6.219-6.588-10.727-12.916-10.727H237.163c-6.327,0-11.755,4.509-12.916,10.727    l-10.925,58.566l13.309,4.603c4.373,1.512,8.172,3.936,11.26,6.983l10.186-54.607h72.781c-1.708,2.828-1.51,5.1-1.51,7.45    c0,5.772,4.678,10.45,10.45,10.45h34.226c5.77,0,10.45-4.678,10.45-10.45c0-2.35,0.199-4.622-1.51-7.45h72.781l16.623,88.716    c-4.843-0.624-6.742,0-19.434,0c-1.589-22.535-20.419-40.469-43.352-40.469c-22.932,0-41.761,17.934-43.351,40.469H244.002    c-6.408,13.788-22.307,20.673-36.973,15.602l-5.394-1.866c-12.123,10.448-19.813,25.898-19.813,43.157v64.874    c0,11.776,9.547,21.323,21.323,21.323h5.534v27.872c0,17.151,13.903,31.054,31.054,31.054c17.151,0,31.054-13.903,31.054-31.054    v-27.872h28.058v10.262c0,6.026,4.885,10.912,10.911,10.912h74.314c6.027,0,10.912-4.886,10.912-10.912v-10.262h28.058v27.872    c0,17.151,13.903,31.054,31.054,31.054s31.053-13.903,31.053-31.054v-27.872h5.534c11.776,0,21.323-9.547,21.323-21.323v-64.874    C512,293.188,504.01,277.451,491.462,267z M238.904,354.106c-15.045,0-27.242-12.204-27.242-27.259    c0-15.054,12.197-27.259,27.242-27.259s27.242,12.205,27.242,27.259C266.146,341.902,253.95,354.106,238.904,354.106z     M377.543,375.452h-61.268c-5.475,0-9.913-4.438-9.913-9.913c0-5.474,4.438-9.913,9.913-9.913h61.268    c5.475,0,9.913,4.439,9.913,9.913C387.456,371.013,383.018,375.452,377.543,375.452z M393.909,337.685h-93.998    c-5.475,0-9.913-4.438-9.913-9.913c0-5.475,4.438-9.913,9.913-9.913h93.998c5.475,0,9.913,4.438,9.913,9.913    C403.822,333.247,399.384,337.685,393.909,337.685z M378.251,253.902c1.504-10.437,10.481-18.572,21.328-18.572    s19.825,8.135,21.33,18.572H378.251z M454.915,354.106c-15.045,0-27.242-12.204-27.242-27.259    c0-15.054,12.196-27.259,27.242-27.259c15.046,0,27.242,12.205,27.242,27.259C482.157,341.902,469.96,354.106,454.915,354.106z" fill="#FFFFFF"/>
	</g>
</g>
<g>
</g>
<g>
</g>
<g>
</g>
<g>
</g>
<g>
</g>
<g>
</g>
<g>
</g>
<g>
</g>
<g>
</g>
<g>
</g>
<g>
</g>
<g>
</g>
<g>
</g>
<g>
</g>
<g>
</g>
</svg>
