<?xml version="1.0" encoding="iso-8859-1"?>
<!-- Generator: Adobe Illustrator 18.0.0, SVG Export Plug-In . SVG Version: 6.00 Build 0)  -->
<!DOCTYPE svg PUBLIC "-//W3C//DTD SVG 1.1//EN" "http://www.w3.org/Graphics/SVG/1.1/DTD/svg11.dtd">
<svg xmlns="http://www.w3.org/2000/svg" xmlns:xlink="http://www.w3.org/1999/xlink" version="1.1" id="Capa_1" x="0px" y="0px" viewBox="0 0 446.3 446.3" style="enable-background:new 0 0 446.3 446.3;" xml:space="preserve" width="512px" height="512px">
<g>
	<path d="M437.3,103.682h-40.304V68.995c0-4.97-4.029-9-9-9h-34.38c-4.971,0-9,4.03-9,9v34.688H101.684V68.995c0-4.97-4.029-9-9-9   H58.305c-4.971,0-9,4.03-9,9v34.688H9c-4.971,0-9,4.03-9,9v57.039c0,4.97,4.029,9,9,9h1.651v198.583c0,4.97,4.029,9,9,9h407   c4.971,0,9-4.03,9-9V178.721h1.648c4.971,0,9-4.03,9-9v-57.039C446.3,107.712,442.271,103.682,437.3,103.682z M362.616,77.995   h16.38v25.688h-16.38V77.995z M67.305,77.995h16.379v25.688H67.305V77.995z M18,121.682h410.3v39.039H18V121.682z M417.651,368.305   h-389V178.721h389V368.305z" fill="#FFFFFF"/>
	<path d="M77.799,251.572v8c0,4.97,4.029,9,9,9s9-4.03,9-9v-8h8c4.971,0,9-4.03,9-9s-4.029-9-9-9h-8v-8c0-4.97-4.029-9-9-9   s-9,4.03-9,9v8h-8c-4.971,0-9,4.03-9,9s4.029,9,9,9H77.799z" fill="#FFFFFF"/>
	<path d="M86.799,291.572c27.019,0,49-21.981,49-49s-21.981-49-49-49s-49,21.981-49,49S59.78,291.572,86.799,291.572z    M86.799,211.572c17.094,0,31,13.906,31,31s-13.906,31-31,31s-31-13.906-31-31S69.705,211.572,86.799,211.572z" fill="#FFFFFF"/>
	<path d="M379.671,251.572c4.971,0,9-4.03,9-9s-4.029-9-9-9h-34c-4.971,0-9,4.03-9,9s4.029,9,9,9H379.671z" fill="#FFFFFF"/>
	<path d="M362.671,291.572c27.019,0,49-21.981,49-49s-21.981-49-49-49s-49,21.981-49,49S335.652,291.572,362.671,291.572z    M362.671,211.572c17.094,0,31,13.906,31,31s-13.906,31-31,31s-31-13.906-31-31S345.577,211.572,362.671,211.572z" fill="#FFFFFF"/>
	<path d="M193.353,275.059c2.89,2.211,6.829,2.463,9.979,0.638l29.866-17.308l-20.193,75.858c-1.278,4.803,1.579,9.734,6.382,11.012   c0.776,0.207,1.555,0.305,2.321,0.305c3.979,0,7.619-2.659,8.691-6.687l25.782-96.854c0.937-3.518-0.339-7.253-3.23-9.464   c-2.891-2.211-6.829-2.463-9.979-0.638l-29.866,17.308l12.69-47.673c1.278-4.803-1.579-9.734-6.382-11.012   c-4.808-1.278-9.734,1.578-11.013,6.382l-18.279,68.669C189.186,269.112,190.461,272.848,193.353,275.059z" fill="#FFFFFF"/>
</g>
<g>
</g>
<g>
</g>
<g>
</g>
<g>
</g>
<g>
</g>
<g>
</g>
<g>
</g>
<g>
</g>
<g>
</g>
<g>
</g>
<g>
</g>
<g>
</g>
<g>
</g>
<g>
</g>
<g>
</g>
</svg>
