<?xml version="1.0" encoding="iso-8859-1"?>
<!-- Generator: Adobe Illustrator 19.0.0, SVG Export Plug-In . SVG Version: 6.00 Build 0)  -->
<svg xmlns="http://www.w3.org/2000/svg" xmlns:xlink="http://www.w3.org/1999/xlink" version="1.1" id="Layer_1" x="0px" y="0px" viewBox="0 0 295.24 295.24" style="enable-background:new 0 0 295.24 295.24;" xml:space="preserve" width="512px" height="512px">
<g>
	<g>
		<g>
			<path d="M287.214,97.125c-4.157-8.19-6.262-17.6-6.262-27.971V42.438c0-2.367,1.205-4.514,2.99-5.338     c8.638-3.99,13.1-13.59,10.605-22.838C292.271,5.862,284.29,0,275.138,0H99.967c-3.495,0-6.524,1.929-8.171,4.762H71.429v4.762     H60.462L42.857,21.263v7.31H4.762v9.524h38.095v7.31l17.605,11.738h10.967v4.762h19.386c0.557,2.09,1.8,3.976,3.586,5.276     l47.91,34.843c2.452,1.795,5.367,2.738,8.405,2.738h35v1.971l9.524,9.524v12.314c0,7.876,6.41,14.286,14.286,14.286h9.524v19.324     c0,4.262-2.419,8.314-6.633,11.124c-6.867,4.567-9.481,13.157-6.362,20.876c2.562,6.324,9.119,10.581,16.314,10.581h20.49v28.571     h9.524v40.476c0,6.567-5.338,11.905-11.905,11.905H21.429c-6.567,0-11.905-5.338-11.905-11.905     c0-6.567,5.338-11.905,11.905-11.905h166.667c11.814,0,21.429-9.614,21.429-21.429c0-11.814-9.614-21.429-21.429-21.429H56.467     c-2.129-8.195-9.519-14.286-18.371-14.286h-23.81v4.762H0v9.524h14.286v9.524H0v9.524h14.286v4.762h23.81     c8.852,0,16.243-6.09,18.371-14.286h131.629c6.567,0,11.905,5.338,11.905,11.905s-5.338,11.905-11.905,11.905H21.429     C9.614,252.381,0,261.995,0,273.81c0,11.814,9.614,21.429,21.429,21.429h219.048c11.814,0,21.429-9.614,21.429-21.429v-40.476     h9.524v-28.571h0.062c13.095,0,23.748-10.662,23.748-23.767V128.4C295.238,118.129,292.543,107.605,287.214,97.125z      M71.429,28.571h-9.524v9.524h9.524v9.524h-8.081l-10.967-7.31V26.357l10.967-7.31h8.081V28.571z M90.476,52.381h-9.524V14.286     h9.524V52.381z M38.095,233.333H23.81v-19.048h14.286c5.252,0,9.524,4.271,9.524,9.524     C47.62,229.063,43.348,233.333,38.095,233.333z M219.048,133.334h-9.524v-0.001c-2.629,0-4.762-2.133-4.762-4.762v-16.257     l-7.552-7.552h17.076c2.629,0,4.762,2.133,4.762,4.762V133.334z M261.905,223.81h-9.524v-19.048h9.524V223.81z M271.49,195.238     h-0.062h-28.571h-20.49c-3.357,0-6.362-1.862-7.481-4.629c-1.41-3.486-0.257-7.343,2.81-9.381     c6.91-4.605,10.876-11.548,10.876-19.048v-52.657c0-7.876-6.41-14.286-14.286-14.286h-63.571c-1.014,0-1.981-0.314-2.805-0.91     L100,59.482V9.524h175.138c4.786,0,9.081,3.043,10.214,7.229c1.286,4.743-0.99,9.667-5.4,11.7     c-5.181,2.395-8.524,7.881-8.524,13.986v26.714c0,11.881,2.457,22.738,7.295,32.276v0.005c4.638,9.133,6.99,18.205,6.99,26.967     v52.594h0.001C285.714,188.847,279.333,195.238,271.49,195.238z" fill="#FFFFFF"/>
			<rect x="147.619" y="76.19" width="19.048" height="9.524" fill="#FFFFFF"/>
			<rect x="147.619" y="61.905" width="19.048" height="9.524" fill="#FFFFFF"/>
			<rect x="147.619" y="47.62" width="19.048" height="9.524" fill="#FFFFFF"/>
			<rect x="147.619" y="33.333" width="19.048" height="9.524" fill="#FFFFFF"/>
			<path d="M257.143,152.381c-7.876,0-14.286,6.41-14.286,14.286s6.41,14.286,14.286,14.286s14.286-6.41,14.286-14.286     C271.429,158.79,265.019,152.381,257.143,152.381z M257.143,171.43c-2.629,0-4.762-2.133-4.762-4.762     c0-2.629,2.133-4.762,4.762-4.762c2.629,0,4.762,2.133,4.762,4.762C261.905,169.295,259.771,171.43,257.143,171.43z" fill="#FFFFFF"/>
			<path d="M14.286,190.477h95.238c7.876,0,14.286-6.41,14.286-14.286v-61.905c0-7.876-6.41-14.286-14.286-14.286H14.286     C6.41,100,0,106.41,0,114.286v61.905C0,184.068,6.41,190.477,14.286,190.477z M9.524,114.286c0-2.629,2.133-4.762,4.762-4.762     h95.238c2.629,0,4.762,2.133,4.762,4.762v61.905c0,2.629-2.133,4.762-4.762,4.762H14.286c-2.629,0-4.762-2.133-4.762-4.762     V114.286z" fill="#FFFFFF"/>
			<polygon points="28.571,152.381 38.095,152.381 38.095,128.571 42.857,128.571 42.857,119.048 23.81,119.048 23.81,128.571      28.571,128.571    " fill="#FFFFFF"/>
			<polygon points="57.143,152.381 66.667,152.381 66.667,128.571 71.429,128.571 71.429,119.048 52.381,119.048 52.381,128.571      57.143,128.571    " fill="#FFFFFF"/>
			<polygon points="85.714,152.381 95.238,152.381 95.238,128.571 100,128.571 100,119.048 80.952,119.048 80.952,128.571      85.714,128.571    " fill="#FFFFFF"/>
			<rect x="19.048" y="161.905" width="85.714" height="9.524" fill="#FFFFFF"/>
		</g>
	</g>
</g>
<g>
</g>
<g>
</g>
<g>
</g>
<g>
</g>
<g>
</g>
<g>
</g>
<g>
</g>
<g>
</g>
<g>
</g>
<g>
</g>
<g>
</g>
<g>
</g>
<g>
</g>
<g>
</g>
<g>
</g>
</svg>
