<?xml version="1.0" encoding="iso-8859-1"?>
<!-- Generator: Adobe Illustrator 19.0.0, SVG Export Plug-In . SVG Version: 6.00 Build 0)  -->
<svg xmlns="http://www.w3.org/2000/svg" xmlns:xlink="http://www.w3.org/1999/xlink" version="1.1" id="Layer_1" x="0px" y="0px" viewBox="0 0 295.239 295.239" style="enable-background:new 0 0 295.239 295.239;" xml:space="preserve" width="512px" height="512px">
<g>
	<g>
		<g>
			<path d="M271.428,157.144h0.001h23.81v-38.095h-23.81v-14.286H157.143v-5.005C181.171,97.363,200,77.029,200,52.381V0.001     h-95.238v52.381c0,16.776,8.743,31.519,21.886,40.005l-18.567,12.376h-3.319c-7.876,0-14.286,6.41-14.286,14.286v4.762H61.905     v38.095h28.571c0,7.876,6.41,14.286,14.286,14.286h42.857v28.562c0,0.243-0.238,23.819-14.286,23.819v9.524     c18.833,0,23.81-21.805,23.81-33.333v-28.573h11.343l38.429,76.857l4.995-1.071l19.962,19.962l19.105-4.776     c-3.124,7.014-13.271,18.552-46.214,18.552H0v9.524h204.762c47.771,0,55.61-22.862,56.89-30.743l14.538-3.633v-22.657     l6.762-1.448l-29.4-65.329h17.876V157.144z M271.428,128.571h14.286v19.048h-14.286V128.571z M90.477,152.381H71.429v-19.048     h19.048V152.381z M147.619,166.667h-42.857c-2.629,0-4.762-2.133-4.762-4.762v-38.095v-4.762c0-2.624,2.133-4.762,4.762-4.762     h42.857V166.667z M147.619,104.763h-22.367l11.291-7.529c3.529,1.252,7.224,2.138,11.076,2.524V104.763z M152.381,90.477     c-21.005,0-38.095-17.09-38.095-38.095V9.524h76.19v42.857C190.476,73.386,173.386,90.477,152.381,90.477z M266.667,253.425     l-31.871,7.971L223,249.6l43.667-9.357V253.425z M249.272,161.905l-11.595-25.762l-8.686,3.905l40.438,89.862l-57.295,12.281     l-37.762-75.524h-17.229v-52.381h104.762v4.762v38.095v4.762H249.272z" fill="#FFFFFF"/>
			<rect x="19.048" y="138.095" width="33.333" height="9.524" fill="#FFFFFF"/>
			<rect y="138.095" width="9.524" height="9.524" fill="#FFFFFF"/>
			<rect x="-2.228" y="101.189" transform="matrix(0.7071 0.7071 -0.7071 0.7071 83.6354 9.9889)" width="63.975" height="9.524" fill="#FFFFFF"/>
			
				<rect x="-5.1" y="176.191" transform="matrix(-0.7071 0.7071 -0.7071 -0.7071 176.7266 288.7025)" width="67.341" height="9.524" fill="#FFFFFF"/>
			<rect x="166.667" y="123.811" width="9.524" height="9.524" fill="#FFFFFF"/>
			<rect x="185.714" y="123.811" width="9.524" height="9.524" fill="#FFFFFF"/>
			<rect x="9.524" y="114.287" width="9.524" height="9.524" fill="#FFFFFF"/>
			<rect x="9.524" y="161.905" width="9.524" height="9.524" fill="#FFFFFF"/>
			<path d="M180.952,28.571H123.81v23.81c0,15.757,12.814,28.571,28.571,28.571c15.757,0,28.571-12.814,28.571-28.571V28.571z      M171.428,52.381c0,10.505-8.543,19.048-19.048,19.048c-10.504,0-19.047-8.543-19.047-19.048V38.095h38.095V52.381z" fill="#FFFFFF"/>
		</g>
	</g>
</g>
<g>
</g>
<g>
</g>
<g>
</g>
<g>
</g>
<g>
</g>
<g>
</g>
<g>
</g>
<g>
</g>
<g>
</g>
<g>
</g>
<g>
</g>
<g>
</g>
<g>
</g>
<g>
</g>
<g>
</g>
</svg>
