<?xml version="1.0" encoding="iso-8859-1"?>
<!-- Generator: Adobe Illustrator 19.0.0, SVG Export Plug-In . SVG Version: 6.00 Build 0)  -->
<svg xmlns="http://www.w3.org/2000/svg" xmlns:xlink="http://www.w3.org/1999/xlink" version="1.1" id="Layer_1" x="0px" y="0px" viewBox="0 0 512 512" style="enable-background:new 0 0 512 512;" xml:space="preserve" width="512px" height="512px">
<g transform="translate(1 1)">
	<g>
		<g>
			<path d="M487.107,496.493l-47.204-50.46c15.035-16.629,24.164-38.713,24.164-63.033c0-20.212-6.307-38.877-17.067-54.153V41.667     c0-14.507-11.093-25.6-25.6-25.6H310.467C310.467,6.68,302.787-1,293.4-1H173.933c-9.387,0-17.067,7.68-17.067,17.067H45.933     c-14.507,0-25.6,11.093-25.6,25.6V485.4c0,14.507,11.093,25.6,25.6,25.6h358.4c5.12,0,8.533-3.413,8.533-8.533v-35.75     c5.175-2.629,10.066-5.726,14.626-9.231l47.667,50.955c1.707,1.707,3.413,2.56,5.973,2.56c1.707,0,4.267-0.853,5.973-2.56     C490.52,505.027,490.52,499.907,487.107,496.493z M370.201,459.8C370.201,459.8,370.2,459.8,370.201,459.8     c-42.668,0-76.801-34.133-76.801-76.8c0-33.273,20.759-61.352,50.134-72.106c0.115-0.039,0.226-0.085,0.341-0.124     c0.139-0.05,0.283-0.092,0.422-0.142c5.501-1.827,11.312-3.049,17.369-3.576c1.018-0.339,2.171-0.54,3.352-0.663     c1.714-0.112,3.438-0.19,5.182-0.19c1.268,0,2.528,0.035,3.78,0.094c0.099,0.005,0.198,0.008,0.296,0.012     c18.148,0.932,34.55,8.064,47.169,19.33c3.709,3.364,7.125,7.131,10.195,11.283c0.232,0.348,0.514,0.661,0.832,0.946     C441.615,350.507,447,366.076,447,383C447,425.666,412.867,459.8,370.201,459.8z M173.933,84.333H293.4     c9.387,0,17.067-7.68,17.067-17.067H395.8v225.28c-0.64-0.148-1.283-0.292-1.929-0.433c-0.913-0.235-1.831-0.455-2.754-0.663     c-0.363-0.081-0.727-0.159-1.091-0.236c-1.093-0.233-2.192-0.452-3.3-0.646c-0.13-0.023-0.26-0.042-0.39-0.064     c-1.188-0.204-2.384-0.385-3.587-0.544c-0.089-0.012-0.177-0.025-0.266-0.037c-1.233-0.159-2.476-0.291-3.724-0.403     c-0.179-0.016-0.357-0.032-0.536-0.047c-1.217-0.102-2.44-0.182-3.67-0.238c-0.183-0.008-0.367-0.013-0.551-0.021     c-1.262-0.05-2.528-0.082-3.803-0.082c-9.315,0-18.298,1.345-26.776,3.842c-38.673,10.619-66.202,45.243-67.045,87.196     c-0.009,0.317-0.016,0.634-0.022,0.952c-0.004,0.342-0.024,0.68-0.024,1.024V383c0,0.945,0.018,1.885,0.045,2.822     c0.004,0.131,0.01,0.262,0.015,0.393c1.015,30.506,16.402,57.207,39.654,73.585H71.533V67.267h85.333     C156.867,76.653,164.547,84.333,173.933,84.333z M421.4,33.133c5.12,0,8.533,3.413,8.533,8.533v268.782     c-0.726-0.597-1.464-1.181-2.208-1.756c-4.608-3.628-9.586-6.799-14.858-9.465V67.267c0-9.387-7.68-17.067-17.067-17.067h-85.333     V33.133H421.4z M173.933,16.067H293.4V24.6v34.133v8.533H173.933v-8.533V24.6V16.067z M395.8,493.933H45.933     c-5.12,0-8.533-3.413-8.533-8.533V41.667c0-5.12,3.413-8.533,8.533-8.533h110.933V50.2H71.533     c-9.387,0-17.067,7.68-17.067,17.067V459.8c0,9.387,7.68,17.067,17.067,17.067H370.2h25.6V493.933z" fill="#FFFFFF"/>
			<path d="M119.32,177.347c-12.8,0-22.187,10.24-22.187,22.187v33.28c0,12.8,9.387,22.187,22.187,22.187h13.034     c3.814,14.679,17.216,25.6,33.046,25.6c15.829,0,29.232-10.921,33.046-25.6h70.442c3.814,14.679,17.216,25.6,33.046,25.6     c15.829,0,29.232-10.921,33.046-25.6h13.034c12.8,0,22.187-9.387,23.04-22.187v-33.28c0-12.8-10.24-22.187-22.187-22.187h-18.176     l-33.024-46.08c-5.12-7.68-13.653-11.947-23.04-11.947h-36.925c-1.169-0.55-2.525-0.853-4.035-0.853s-2.865,0.304-4.035,0.853     h-36.925c-9.387,0-17.92,4.267-23.04,11.947l-33.024,46.08H119.32z M165.4,263.533c-9.387,0-17.067-7.68-17.067-17.067     s7.68-17.067,17.067-17.067c9.387,0,17.067,7.68,17.067,17.067S174.787,263.533,165.4,263.533z M301.933,263.533     c-9.387,0-17.067-7.68-17.067-17.067s7.68-17.067,17.067-17.067S319,237.08,319,246.467S311.32,263.533,301.933,263.533z      M353.987,199.533v33.28c0,2.56-2.56,5.12-5.12,5.12h-13.653c-4.267-14.507-15.36-25.6-31.573-25.6     c-0.311,0-0.62,0.012-0.929,0.02c-0.259-0.006-0.517-0.02-0.778-0.02c-15.83,0-29.232,10.921-33.046,25.6h-69.354     c-4.267-14.507-17.067-25.6-33.28-25.6c-0.156,0-0.309,0.008-0.464,0.01c-0.13-0.001-0.258-0.01-0.389-0.01     c-15.83,0-29.232,10.921-33.046,25.6H119.32c-2.56,0-5.12-2.56-5.12-5.12v-33.28c0-2.56,2.56-5.12,5.12-5.12h16.642     c1.132,0.538,2.405,0.853,3.838,0.853h187.733c1.433,0,2.706-0.315,3.838-0.853h17.495     C351.427,194.413,353.987,196.973,353.987,199.533z M283.16,139.8l26.7,37.547H242.2v-41.813h31.573     C278.04,135.533,281.453,137.24,283.16,139.8z M182.467,139.8c2.56-2.56,5.973-4.267,9.387-4.267h33.28v41.813h-68.532     L182.467,139.8z" fill="#FFFFFF"/>
			<path d="M233.667,323.267h-128c-5.12,0-8.533,3.413-8.533,8.533c0,5.12,3.413,8.533,8.533,8.533h128     c5.12,0,8.533-3.413,8.533-8.533C242.2,326.68,238.787,323.267,233.667,323.267z" fill="#FFFFFF"/>
			<path d="M233.667,365.933h-128c-5.12,0-8.533,3.413-8.533,8.533s3.413,8.533,8.533,8.533h128c5.12,0,8.533-3.413,8.533-8.533     S238.787,365.933,233.667,365.933z" fill="#FFFFFF"/>
			<path d="M233.667,408.6h-128c-5.12,0-8.533,3.413-8.533,8.533s3.413,8.533,8.533,8.533h128c5.12,0,8.533-3.413,8.533-8.533     S238.787,408.6,233.667,408.6z" fill="#FFFFFF"/>
		</g>
	</g>
</g>
<g>
</g>
<g>
</g>
<g>
</g>
<g>
</g>
<g>
</g>
<g>
</g>
<g>
</g>
<g>
</g>
<g>
</g>
<g>
</g>
<g>
</g>
<g>
</g>
<g>
</g>
<g>
</g>
<g>
</g>
</svg>
