<?xml version="1.0" encoding="iso-8859-1"?>
<!-- Generator: Adobe Illustrator 17.1.0, SVG Export Plug-In . SVG Version: 6.00 Build 0)  -->
<!DOCTYPE svg PUBLIC "-//W3C//DTD SVG 1.1//EN" "http://www.w3.org/Graphics/SVG/1.1/DTD/svg11.dtd">
<svg xmlns="http://www.w3.org/2000/svg" xmlns:xlink="http://www.w3.org/1999/xlink" version="1.1" id="Capa_1" x="0px" y="0px" viewBox="0 0 226.334 226.334" style="enable-background:new 0 0 226.334 226.334;" xml:space="preserve" width="512px" height="512px">
<path d="M221.334,127.223h-1V70.251c0-7.98-6.492-14.472-14.473-14.472H100.167H65.704c-0.055,0-0.11,0.001-0.166,0.003  c-0.429-0.012-0.867,0.027-1.295,0.126c-1.396,0.324-2.586,1.232-3.268,2.494l-6.944,12.85l-9.78,17.281  c-0.35,0.213-0.739,0.367-1.157,0.409l-21.139,2.173C15.14,91.816,10,97.511,10,104.362v22.86H5c-1.484,0-2.892,0.66-3.842,1.8  c-0.95,1.141-1.344,2.644-1.076,4.104l3,16.313c0.437,2.373,2.505,4.096,4.917,4.096h14.126c2.271,9.74,11.018,17.02,21.44,17.02  s19.169-7.28,21.44-17.02h91.201c2.271,9.74,11.018,17.02,21.44,17.02s19.169-7.28,21.44-17.02h22.247c2.762,0,5-2.239,5-5v-16.313  C226.334,129.461,224.095,127.223,221.334,127.223z M43.566,160.555c-6.627,0-12.02-5.392-12.02-12.02s5.392-12.02,12.02-12.02  s12.02,5.392,12.02,12.02S50.194,160.555,43.566,160.555z M95.167,82.973c0,2.16-1.757,3.917-3.917,3.917H56.671l11.948-21.111  h26.547V82.973z M145.118,124.894c-1.126,1.126-2.623,1.746-4.215,1.746s-3.089-0.62-4.215-1.746c-2.324-2.324-2.324-6.105,0-8.43  l21.284-21.285c-2.343-5.704-1.076-12.387,3.363-16.826c3.094-3.092,7.309-4.707,11.698-4.501c0.988,0.048,1.854,0.674,2.211,1.597  c0.356,0.922,0.135,1.969-0.564,2.668l-6.087,6.087c-0.276,0.276-0.317,0.598-0.317,0.766s0.041,0.489,0.317,0.765l7.253,7.253  c0.276,0.275,0.598,0.317,0.766,0.317c0.167,0,0.489-0.042,0.766-0.317l6.087-6.086c0.7-0.701,1.746-0.921,2.668-0.564  c0.923,0.356,1.549,1.223,1.597,2.211c0.211,4.363-1.43,8.627-4.501,11.698c-2.919,2.918-6.8,4.526-10.929,4.526  c-2.027,0-4.034-0.398-5.896-1.163L145.118,124.894z M177.647,160.555c-6.628,0-12.02-5.392-12.02-12.02s5.392-12.02,12.02-12.02  s12.02,5.392,12.02,12.02S184.275,160.555,177.647,160.555z" fill="#FFFFFF"/>
<g>
</g>
<g>
</g>
<g>
</g>
<g>
</g>
<g>
</g>
<g>
</g>
<g>
</g>
<g>
</g>
<g>
</g>
<g>
</g>
<g>
</g>
<g>
</g>
<g>
</g>
<g>
</g>
<g>
</g>
</svg>
