<?xml version="1.0" encoding="iso-8859-1"?>
<!-- Generator: Adobe Illustrator 16.0.0, SVG Export Plug-In . SVG Version: 6.00 Build 0)  -->
<!DOCTYPE svg PUBLIC "-//W3C//DTD SVG 1.1//EN" "http://www.w3.org/Graphics/SVG/1.1/DTD/svg11.dtd">
<svg xmlns="http://www.w3.org/2000/svg" xmlns:xlink="http://www.w3.org/1999/xlink" version="1.1" id="Capa_1" x="0px" y="0px" width="512px" height="512px" viewBox="0 0 70.078 70.077" style="enable-background:new 0 0 70.078 70.077;" xml:space="preserve">
<g>
	<g>
		<path d="M57.962,50.357c-5.438,0-9.864,4.425-9.864,9.86c0,5.437,4.426,9.859,9.864,9.859c5.433,0,9.86-4.428,9.86-9.859    C67.823,54.78,63.4,50.357,57.962,50.357z M57.962,66.73c-3.596,0-6.52-2.924-6.52-6.52c0-3.593,2.924-6.515,6.52-6.515    c3.595,0,6.515,2.922,6.515,6.515C64.481,63.807,61.557,66.73,57.962,66.73z" fill="#FFFFFF"/>
		<path d="M38.386,45.325h11.692v-1.709h6.218c9.043,0,13.771-6.433,13.771-14.367c0-5.648-2.409-10.518-7.051-12.865    C61.74,6.907,56.511,0,50.079,0H20.006C13.567,0,8.343,6.905,7.061,16.382c-4.643,2.345-7.052,7.219-7.052,12.867    c0,4.34,1.424,8.225,4.188,10.856v8.956h11.144v-5.447h4.66v1.706h11.693v21.967h-5.657v2.224h18.001v-2.224h-5.657V45.325H38.386    z M45.154,14.884c0-2.717,2.206-4.924,4.92-4.924c2.715,0,4.923,2.207,4.923,4.924H45.154z M49.709,27.885    c0,0.617-0.498,1.115-1.113,1.115H21.478c-0.616,0-1.117-0.498-1.117-1.115c0-0.617,0.5-1.116,1.117-1.116h27.119    C49.211,26.769,49.709,27.268,49.709,27.885z M62.629,29.249c0,2.581-2.092,4.669-4.667,4.669c-2.578,0-4.672-2.088-4.672-4.669    c0-2.579,2.094-4.669,4.672-4.669C60.538,24.58,62.629,26.67,62.629,29.249z M12.114,33.918c-2.577,0-4.667-2.088-4.667-4.669    c0-2.579,2.093-4.669,4.667-4.669c2.579,0,4.671,2.091,4.671,4.669C16.785,31.83,14.695,33.918,12.114,33.918z M13.781,14.884    c-1.1,0-2.133,0.098-3.107,0.28c1.381-6.797,5.09-11.819,9.33-11.819h30.07c4.234,0,7.943,5.022,9.325,11.819    c-0.693-0.131-1.423-0.201-2.181-0.241c0-0.015,0.005-0.028,0.005-0.042c0-3.945-3.207-7.152-7.153-7.152    c-3.942,0-7.149,3.209-7.149,7.152L13.781,14.884L13.781,14.884z M21.478,33.087c-0.616,0-1.117-0.497-1.117-1.114    s0.5-1.114,1.117-1.114h27.119c0.615,0,1.113,0.497,1.113,1.114s-0.498,1.114-1.113,1.114H21.478z" fill="#FFFFFF"/>
	</g>
</g>
<g>
</g>
<g>
</g>
<g>
</g>
<g>
</g>
<g>
</g>
<g>
</g>
<g>
</g>
<g>
</g>
<g>
</g>
<g>
</g>
<g>
</g>
<g>
</g>
<g>
</g>
<g>
</g>
<g>
</g>
</svg>
