<?xml version="1.0" encoding="iso-8859-1"?>
<!-- Generator: Adobe Illustrator 16.0.0, SVG Export Plug-In . SVG Version: 6.00 Build 0)  -->
<!DOCTYPE svg PUBLIC "-//W3C//DTD SVG 1.1//EN" "http://www.w3.org/Graphics/SVG/1.1/DTD/svg11.dtd">
<svg xmlns="http://www.w3.org/2000/svg" xmlns:xlink="http://www.w3.org/1999/xlink" version="1.1" id="Capa_1" x="0px" y="0px" width="512px" height="512px" viewBox="0 0 77.082 77.082" style="enable-background:new 0 0 77.082 77.082;" xml:space="preserve">
<g>
	<path d="M75.207,29.14l-6.031-3.889l-23.29,8.28l-4.357-2.579H30.513v-1.437h4.728v-3.915H21.865v3.915h4.731v1.437H14.291   l-8.11-4.672L0,32.73l13.141,17.015l0.122-0.096v2.183h28.42l27.369-21.999l4.037,2.602L75.207,29.14z M5.158,33.002l1.729-1.801   l6.373,3.675v8.618L5.158,33.002z M40.302,47.917H17.18V34.866h23.278l5.012,2.97l13.217-4.698L40.302,47.917z M77.082,40.561   c0,1.619-1.313,2.934-2.934,2.934c-1.624,0-2.938-1.312-2.938-2.934c0-1.625,2.938-6.769,2.938-6.769S77.082,38.938,77.082,40.561z   " fill="#FFFFFF"/>
</g>
<g>
</g>
<g>
</g>
<g>
</g>
<g>
</g>
<g>
</g>
<g>
</g>
<g>
</g>
<g>
</g>
<g>
</g>
<g>
</g>
<g>
</g>
<g>
</g>
<g>
</g>
<g>
</g>
<g>
</g>
</svg>
